<svg xmlns="http://www.w3.org/2000/svg" width="196" height="48" fill="none"><path fill="#111" d="M53.026 16.93h2.13l5.963 13.84h-2.815l-1.29-3.166h-6.001l-1.251 3.166h-2.757l6.021-13.84zm3.128 8.563-2.131-5.63-2.17 5.63h4.3zm7.608-8.563h2.834l3.774 10.46 3.89-10.458h2.659l-5.591 13.84h-2.13l-5.435-13.84zm21.958 0h2.13l5.963 13.84h-2.815l-1.29-3.166h-6.002l-1.25 3.166h-2.757l6.02-13.84zm3.127 8.563-2.13-5.63-2.17 5.63h4.3zm10.412-8.563h2.463v11.612h5.884v2.228h-8.347V16.93zm18.521 0h2.131l5.962 13.84h-2.815l-1.29-3.166h-6.001l-1.251 3.166h-2.756l6.02-13.84zm3.128 8.563-2.131-5.63-2.169 5.63h4.3zm10.417-8.563h3.264l6.705 10.283h.039V16.93h2.463v13.84h-3.127l-6.842-10.615h-.039V30.77h-2.463V16.93zm28.964 3.25c-.509-.548-1.004-.913-1.486-1.096a3.913 3.913 0 0 0-1.427-.273c-.717 0-1.368.13-1.955.39a4.31 4.31 0 0 0-1.486 1.056 4.803 4.803 0 0 0-.977 1.564 5.528 5.528 0 0 0-.332 1.935c0 .743.11 1.427.332 2.053a4.94 4.94 0 0 0 .977 1.622c.417.456.913.815 1.486 1.076.587.26 1.238.39 1.955.39a3.58 3.58 0 0 0 1.622-.39c.534-.274 1.029-.704 1.486-1.29l2.032 1.446c-.625.86-1.387 1.485-2.287 1.877a7.126 7.126 0 0 1-2.872.586c-1.07 0-2.053-.17-2.952-.508a7.029 7.029 0 0 1-2.307-1.466 6.946 6.946 0 0 1-1.506-2.288c-.365-.886-.546-1.87-.546-2.951 0-1.108.181-2.111.546-3.01.366-.913.868-1.688 1.506-2.327a6.633 6.633 0 0 1 2.307-1.466c.899-.351 1.882-.527 2.952-.527.938 0 1.804.169 2.599.508.808.325 1.557.886 2.248 1.68l-1.915 1.408zm7.791-3.25h2.463v5.513h6.47v-5.512h2.463v13.84h-2.463v-6.1h-6.47v6.1h-2.463V16.93zm18.4 0h9.167v2.23h-6.704v3.4h6.353v2.229h-6.353v3.753H196v2.228h-9.52V16.93zM20.03 4a20.062 20.062 0 0 1 14.191 5.869 20.077 20.077 0 0 1 5.888 14.187c0 11.085-8.97 20.093-19.997 20.103a20.065 20.065 0 0 1-14.204-5.852A20.084 20.084 0 0 1 5.85 9.91 20.068 20.068 0 0 1 20.03 4zm-9.577 30.39h2.915c1.584 0 2.799-.683 3.59-2.05a2980.91 2980.91 0 0 0 7.377-12.779c.776-1.353.76-2.737 0-4.101a1367.328 1367.328 0 0 0-3.077-5.465 1.954 1.954 0 0 0-.643-.733c-.668-.418-1.408-.14-1.893.71-1.44 2.532-2.876 5.064-4.311 7.596l-6.5 11.44c-.653 1.153-1.33 2.296-1.93 3.477-.468.925-.033 1.693.982 1.881.15.02.3.028.45.021l3.04.002zm17.872 0h4.187c1.654 0 2.177-.905 1.36-2.339-1.155-2.03-2.311-4.06-3.47-6.087a18.837 18.837 0 0 0-.981-1.654c-.583-.814-1.42-.817-2.062-.055-.12.148-.228.306-.323.472-.245.41-.48.826-.72 1.244-1.206 2.08-2.42 4.155-3.618 6.238-.675 1.173-.114 2.153 1.234 2.184h.329l4.064-.004z"/><path fill="#FDFDFD" d="M10.452 34.39H7.407c-.15.005-.3-.002-.45-.022-1.015-.189-1.45-.956-.981-1.881.6-1.182 1.276-2.324 1.93-3.477 2.164-3.813 4.33-7.627 6.499-11.44 1.44-2.533 2.879-5.065 4.315-7.596.485-.853 1.225-1.13 1.893-.71.273.185.495.437.645.731 1.03 1.82 2.054 3.64 3.075 5.465.763 1.364.78 2.748 0 4.101a2774.915 2774.915 0 0 1-7.377 12.78c-.791 1.366-2.006 2.044-3.59 2.048H10.45h.002zm17.873-.002H23.93c-1.348-.03-1.909-1.01-1.234-2.183 1.199-2.084 2.412-4.159 3.617-6.239.242-.414.476-.83.721-1.243a3.49 3.49 0 0 1 .323-.473c.64-.762 1.48-.758 2.062.055.355.534.683 1.086.982 1.654 1.16 2.029 2.317 4.058 3.47 6.088.816 1.433.293 2.336-1.36 2.338-1.396.005-2.792.003-4.188.003z"/></svg>